<svg width="32" height="32" viewBox="0 0 32 32" fill="none" xmlns="http://www.w3.org/2000/svg">
<rect width="32" height="32" rx="8" fill="#1B2029"/>
<g clip-path="url(#clip0)">
<path d="M16 12C16.1326 12 16.2598 12.0527 16.3536 12.1464C16.4473 12.2402 16.5 12.3674 16.5 12.5V14C16.5 14.1326 16.4473 14.2598 16.3536 14.3536C16.2598 14.4473 16.1326 14.5 16 14.5C15.8674 14.5 15.7402 14.4473 15.6464 14.3536C15.5527 14.2598 15.5 14.1326 15.5 14V12.5C15.5 12.3674 15.5527 12.2402 15.6464 12.1464C15.7402 12.0527 15.8674 12 16 12ZM11.732 13.732C11.8258 13.6383 11.9529 13.5856 12.0855 13.5856C12.2181 13.5856 12.3452 13.6383 12.439 13.732L13.354 14.646C13.4005 14.6925 13.4374 14.7477 13.4625 14.8084C13.4877 14.8692 13.5006 14.9343 13.5006 15C13.5006 15.0657 13.4877 15.1308 13.4625 15.1916C13.4374 15.2523 13.4005 15.3075 13.354 15.354C13.3075 15.4005 13.2523 15.4374 13.1916 15.4625C13.1308 15.4877 13.0657 15.5006 13 15.5006C12.9343 15.5006 12.8692 15.4877 12.8084 15.4625C12.7477 15.4374 12.6925 15.4005 12.646 15.354L11.732 14.439C11.6383 14.3452 11.5856 14.2181 11.5856 14.0855C11.5856 13.9529 11.6383 13.8258 11.732 13.732ZM10 18C10 17.8674 10.0527 17.7402 10.1464 17.6464C10.2402 17.5527 10.3674 17.5 10.5 17.5H12.086C12.2186 17.5 12.3458 17.5527 12.4396 17.6464C12.5333 17.7402 12.586 17.8674 12.586 18C12.586 18.1326 12.5333 18.2598 12.4396 18.3536C12.3458 18.4473 12.2186 18.5 12.086 18.5H10.5C10.3674 18.5 10.2402 18.4473 10.1464 18.3536C10.0527 18.2598 10 18.1326 10 18ZM19.5 18C19.5 17.8674 19.5527 17.7402 19.6464 17.6464C19.7402 17.5527 19.8674 17.5 20 17.5H21.5C21.6326 17.5 21.7598 17.5527 21.8536 17.6464C21.9473 17.7402 22 17.8674 22 18C22 18.1326 21.9473 18.2598 21.8536 18.3536C21.7598 18.4473 21.6326 18.5 21.5 18.5H20C19.8674 18.5 19.7402 18.4473 19.6464 18.3536C19.5527 18.2598 19.5 18.1326 19.5 18ZM20.254 13.754C20.1847 13.6851 20.0921 13.6448 19.9944 13.6411C19.8968 13.6374 19.8013 13.6705 19.727 13.734L15.547 17.31C15.4496 17.3921 15.3705 17.4936 15.3149 17.6082C15.2592 17.7227 15.2282 17.8477 15.2239 17.975C15.2195 18.1022 15.242 18.229 15.2897 18.3471C15.3375 18.4651 15.4094 18.5719 15.501 18.6603C15.5926 18.7488 15.7018 18.8171 15.8214 18.8608C15.941 18.9044 16.0685 18.9225 16.1955 18.9138C16.3226 18.9051 16.4464 18.8698 16.559 18.8102C16.6715 18.7507 16.7703 18.6682 16.849 18.568L20.283 14.271C20.3427 14.1962 20.3728 14.102 20.3675 14.0065C20.3621 13.9109 20.3217 13.8206 20.254 13.753V13.754Z" fill="#ED3237"/>
<path fill-rule="evenodd" clip-rule="evenodd" d="M8.00001 18C8.00105 16.8358 8.25618 15.6859 8.74758 14.6305C9.23898 13.5751 9.9548 12.6396 10.8451 11.8895C11.7354 11.1393 12.7787 10.5925 13.9021 10.2872C15.0256 9.98188 16.2021 9.92546 17.3496 10.1219C18.4972 10.3183 19.588 10.7628 20.5459 11.4243C21.5039 12.0859 22.306 12.9485 22.8961 13.9521C23.4862 14.9556 23.8502 16.0759 23.9626 17.2346C24.075 18.3934 23.9332 19.5627 23.547 20.661C23.105 21.914 21.702 22.263 20.615 21.911C19.309 21.488 17.475 21 16 21C14.526 21 12.69 21.488 11.385 21.911C10.298 22.263 8.89501 21.914 8.45301 20.661C8.15215 19.8061 7.99896 18.9063 8.00001 18ZM16 11C14.8804 10.9997 13.777 11.268 12.7825 11.7824C11.788 12.2967 10.9314 13.0421 10.2846 13.956C9.63774 14.8698 9.21955 15.9255 9.06511 17.0345C8.91067 18.1434 9.02449 19.2732 9.39701 20.329C9.60001 20.904 10.32 21.205 11.077 20.959C12.397 20.533 14.358 20 16 20C17.642 20 19.604 20.532 20.923 20.96C21.68 21.205 22.4 20.904 22.603 20.329C22.9755 19.2732 23.0893 18.1434 22.9349 17.0345C22.7805 15.9255 22.3623 14.8698 21.7154 13.956C21.0686 13.0421 20.212 12.2967 19.2175 11.7824C18.223 11.268 17.1196 10.9997 16 11Z" fill="#ED3237"/>
</g>
<defs>
<clipPath id="clip0">
<rect width="16" height="16" fill="white" transform="translate(8 8)"/>
</clipPath>
</defs>
</svg>
